<svg xmlns="http://www.w3.org/2000/svg" xmlns:xlink="http://www.w3.org/1999/xlink" width="40" zoomAndPan="magnify" viewBox="0 0 30 30.000001" height="40" preserveAspectRatio="xMidYMid meet" version="1.0"><defs><clipPath id="a1d9a158cf"><path d="M 0.484375 0.109375 L 29 0.109375 L 29 29 L 0.484375 29 Z M 0.484375 0.109375 " clip-rule="nonzero"/></clipPath></defs><g clip-path="url(#a1d9a158cf)"><path fill="#f1f5f9" d="M 14.742188 19.734375 C 15.707031 19.738281 16.488281 20.507812 16.488281 21.460938 C 16.488281 22.414062 15.707031 23.183594 14.742188 23.183594 C 13.777344 23.183594 12.996094 22.414062 12.996094 21.460938 C 12.996094 20.507812 13.777344 19.734375 14.742188 19.734375 Z M 15.265625 5.121094 C 19.085938 5.183594 22.3125 9.367188 19.707031 13.035156 C 19.082031 13.855469 18.296875 14.101562 17.625 14.46875 C 16.398438 15.140625 16.046875 14.96875 16.046875 16.492188 C 16.046875 18.289062 13.375 18.273438 13.292969 16.492188 L 13.246094 15.40625 C 13.195312 14.371094 13.929688 13.511719 14.558594 13.070312 C 15.488281 12.414062 16.019531 12.449219 16.820312 11.441406 C 18.695312 9.078125 15.273438 6.675781 12.636719 8.496094 C 11.964844 8.964844 11.558594 9.605469 11.558594 10.832031 C 11.605469 12.628906 8.886719 12.628906 8.933594 10.832031 C 8.933594 8.878906 9.835938 7.300781 11.085938 6.382812 C 12.339844 5.464844 13.847656 5.121094 15.265625 5.121094 Z M 15.050781 0.132812 C 13.632812 0.101562 12.257812 0.277344 10.957031 0.632812 C 5.742188 2.0625 1.699219 6.394531 1.070312 11.609375 C 0.441406 16.824219 1.78125 20.585938 4.300781 23.375 L 3.089844 26.8125 C 2.671875 27.996094 3.417969 28.914062 4.585938 28.4375 L 8.839844 26.691406 C 10.164062 27.300781 11.609375 27.722656 13.144531 27.90625 C 20.8125 28.832031 27.699219 23.609375 28.644531 15.738281 C 29.59375 7.875 24.144531 1.160156 16.476562 0.234375 C 16 0.175781 15.519531 0.144531 15.050781 0.132812 Z M 15.050781 0.132812 " fill-opacity="1" fill-rule="evenodd"/></g></svg>