<svg xmlns="http://www.w3.org/2000/svg" xmlns:xlink="http://www.w3.org/1999/xlink" width="150" zoomAndPan="magnify" viewBox="0 0 112.5 37.5" height="50" preserveAspectRatio="xMidYMid meet" version="1.0"><defs><g/></defs><g fill="#14b8a6" fill-opacity="1"><g transform="translate(2.799887, 27.384868)"><g><path d="M 1.25 0 L 1.25 -20.78125 L 10.78125 -20.78125 C 11.75 -20.757812 12.234375 -20.488281 12.234375 -19.96875 C 12.234375 -19.03125 12.128906 -18.375 11.921875 -18 C 11.722656 -17.632812 11.296875 -17.453125 10.640625 -17.453125 L 4.78125 -17.453125 L 5.0625 -12.5625 L 10.828125 -12.5625 C 11.585938 -12.5625 11.96875 -12.269531 11.96875 -11.6875 C 11.96875 -10.726562 11.882812 -10.078125 11.71875 -9.734375 C 11.550781 -9.398438 11.195312 -9.234375 10.65625 -9.234375 L 5.109375 -9.234375 L 5.109375 0 C 5.109375 0.113281 5.097656 0.1875 5.078125 0.21875 C 4.984375 0.363281 4.628906 0.4375 4.015625 0.4375 C 3.398438 0.4375 2.785156 0.390625 2.171875 0.296875 C 1.554688 0.210938 1.25 0.113281 1.25 0 Z M 1.25 0 "/></g></g></g><g fill="#14b8a6" fill-opacity="1"><g transform="translate(14.707445, 27.384868)"><g><path d="M 8.234375 -21.25 C 9.503906 -21.25 10.191406 -20.960938 10.296875 -20.390625 L 12.1875 -11.90625 L 14.09375 -0.609375 C 14.125 -0.421875 14.140625 -0.25 14.140625 -0.09375 C 14.140625 0.0625 14.09375 0.1875 14 0.28125 C 13.914062 0.382812 13.601562 0.4375 13.0625 0.4375 C 11.425781 0.4375 10.550781 0.0859375 10.4375 -0.609375 L 9.46875 -6.296875 L 5.609375 -6.296875 L 4.75 -0.578125 C 4.695312 -0.191406 4.628906 0.0625 4.546875 0.1875 C 4.460938 0.320312 4.347656 0.394531 4.203125 0.40625 C 4.054688 0.425781 3.816406 0.4375 3.484375 0.4375 L 2.703125 0.4375 C 2.054688 0.4375 1.648438 0.398438 1.484375 0.328125 C 1.085938 0.179688 0.859375 0.015625 0.796875 -0.171875 C 0.785156 -0.253906 0.78125 -0.332031 0.78125 -0.40625 C 0.78125 -0.488281 0.972656 -1.707031 1.359375 -4.0625 C 1.742188 -6.414062 2.21875 -9.222656 2.78125 -12.484375 C 3.34375 -15.742188 3.707031 -17.878906 3.875 -18.890625 C 4.050781 -19.910156 4.148438 -20.484375 4.171875 -20.609375 C 4.242188 -21.035156 5.597656 -21.25 8.234375 -21.25 Z M 7.40625 -17.625 L 6.125 -9.640625 L 8.875 -9.640625 Z M 7.40625 -17.625 "/></g></g></g><g fill="#14b8a6" fill-opacity="1"><g transform="translate(29.377779, 27.384868)"><g><path d="M 0.890625 -10.25 C 0.890625 -13.175781 1.117188 -15.421875 1.578125 -16.984375 C 2.035156 -18.554688 2.765625 -19.65625 3.765625 -20.28125 C 4.773438 -20.90625 6.226562 -21.21875 8.125 -21.21875 C 10.019531 -21.21875 11.46875 -20.90625 12.46875 -20.28125 C 13.476562 -19.65625 14.207031 -18.5625 14.65625 -17 C 15.101562 -15.445312 15.328125 -13.195312 15.328125 -10.25 C 15.328125 -6.21875 14.8125 -3.425781 13.78125 -1.875 C 12.75 -0.332031 10.859375 0.4375 8.109375 0.4375 C 5.367188 0.4375 3.476562 -0.332031 2.4375 -1.875 C 1.40625 -3.425781 0.890625 -6.21875 0.890625 -10.25 Z M 5.484375 -15.390625 C 5.378906 -14.703125 5.316406 -14.003906 5.296875 -13.296875 C 5.285156 -12.585938 5.28125 -11.382812 5.28125 -9.6875 C 5.28125 -8 5.332031 -6.582031 5.4375 -5.4375 C 5.550781 -4.300781 5.695312 -3.550781 5.875 -3.1875 C 6.0625 -2.832031 6.3125 -2.65625 6.625 -2.65625 C 8.25 -2.65625 9.316406 -2.820312 9.828125 -3.15625 C 9.992188 -3.28125 10.164062 -3.488281 10.34375 -3.78125 C 10.519531 -4.082031 10.644531 -4.390625 10.71875 -4.703125 C 10.789062 -5.015625 10.851562 -5.472656 10.90625 -6.078125 C 10.976562 -6.867188 11.015625 -8.289062 11.015625 -10.34375 C 11.015625 -12.394531 10.960938 -14.015625 10.859375 -15.203125 C 10.765625 -16.390625 10.617188 -17.195312 10.421875 -17.625 C 10.234375 -18.0625 9.984375 -18.28125 9.671875 -18.28125 C 8.929688 -18.28125 8.332031 -18.25 7.875 -18.1875 C 7.425781 -18.125 7.023438 -17.96875 6.671875 -17.71875 C 6.328125 -17.46875 6.070312 -17.191406 5.90625 -16.890625 C 5.738281 -16.585938 5.597656 -16.085938 5.484375 -15.390625 Z M 14.203125 3.671875 C 14.179688 4.265625 14.035156 4.660156 13.765625 4.859375 C 13.503906 5.066406 12.957031 5.171875 12.125 5.171875 C 11.300781 5.171875 9.914062 5.066406 7.96875 4.859375 C 6.03125 4.660156 4.546875 4.5625 3.515625 4.5625 L 3.0625 3.203125 C 3.082031 2.554688 3.257812 2.117188 3.59375 1.890625 C 3.925781 1.660156 4.472656 1.546875 5.234375 1.546875 C 5.992188 1.546875 7.304688 1.632812 9.171875 1.8125 C 11.046875 2 12.492188 2.09375 13.515625 2.09375 Z M 14.203125 3.671875 "/></g></g></g><g fill="#14b8a6" fill-opacity="1"><g transform="translate(45.429504, 27.384868)"><g><path d="M 11.375 -0.578125 L 11.375 -13.125 L 9.578125 -9.78125 L 6.796875 -9.78125 L 5.109375 -13.0625 L 5.109375 -0.609375 C 5.109375 -0.273438 5.097656 -0.0507812 5.078125 0.0625 C 5.003906 0.3125 4.644531 0.4375 4 0.4375 C 2.164062 0.4375 1.25 0.0976562 1.25 -0.578125 L 1.25 -20.171875 C 1.25 -20.867188 1.882812 -21.21875 3.15625 -21.21875 C 4.425781 -21.21875 5.1875 -20.875 5.4375 -20.1875 L 8.234375 -13.0625 L 11.15625 -20.21875 C 11.300781 -20.625 11.476562 -20.890625 11.6875 -21.015625 C 11.90625 -21.148438 12.28125 -21.21875 12.8125 -21.21875 C 14.144531 -21.21875 14.816406 -20.859375 14.828125 -20.140625 L 15.28125 -11.90625 L 15.28125 -0.78125 C 15.28125 -0.21875 15.226562 0.125 15.125 0.25 C 15.019531 0.375 14.6875 0.4375 14.125 0.4375 C 13.5625 0.4375 13.101562 0.414062 12.75 0.375 C 12.40625 0.34375 12.085938 0.25 11.796875 0.09375 C 11.515625 -0.0625 11.375 -0.285156 11.375 -0.578125 Z M 11.375 -0.578125 "/></g></g></g><g fill="#14b8a6" fill-opacity="1"><g transform="translate(61.70225, 27.384868)"><g><path d="M 7.5625 -0.859375 C 6.601562 0.00390625 5.75 0.4375 5 0.4375 C 4.257812 0.4375 3.660156 0.382812 3.203125 0.28125 C 2.742188 0.1875 2.328125 -0.03125 1.953125 -0.375 C 1.585938 -0.71875 1.332031 -1.207031 1.1875 -1.84375 C 1.039062 -2.488281 0.96875 -3.347656 0.96875 -4.421875 C 0.96875 -5.910156 1.695312 -6.929688 3.15625 -7.484375 L 7.09375 -8.515625 C 7.082031 -9.703125 6.960938 -10.472656 6.734375 -10.828125 C 6.515625 -11.179688 6.035156 -11.359375 5.296875 -11.359375 C 4.566406 -11.359375 3.929688 -11.238281 3.390625 -11 L 2.4375 -10.609375 L 2.40625 -10.609375 C 2.238281 -10.515625 2.09375 -10.585938 1.96875 -10.828125 C 1.632812 -11.523438 1.46875 -12.070312 1.46875 -12.46875 C 1.46875 -12.863281 1.5 -13.082031 1.5625 -13.125 C 1.625 -13.175781 1.65625 -13.210938 1.65625 -13.234375 C 2.570312 -13.835938 3.765625 -14.140625 5.234375 -14.140625 C 6.703125 -14.140625 7.832031 -13.945312 8.625 -13.5625 C 9.414062 -13.175781 9.988281 -12.472656 10.34375 -11.453125 C 10.707031 -10.429688 10.890625 -8.914062 10.890625 -6.90625 L 10.828125 0 C 10.828125 0.113281 10.8125 0.1875 10.78125 0.21875 C 10.695312 0.363281 10.34375 0.4375 9.71875 0.4375 C 8.582031 0.4375 8.015625 0.289062 8.015625 0 Z M 4.03125 -4.359375 C 4.03125 -3.035156 4.414062 -2.335938 5.1875 -2.265625 C 5.726562 -2.265625 6.117188 -2.359375 6.359375 -2.546875 C 6.867188 -2.890625 7.125 -4.195312 7.125 -6.46875 C 6.164062 -6.332031 5.410156 -6.066406 4.859375 -5.671875 C 4.304688 -5.273438 4.03125 -4.835938 4.03125 -4.359375 Z M 4.03125 -4.359375 "/></g></g></g><g fill="#14b8a6" fill-opacity="1"><g transform="translate(73.4993, 27.384868)"><g><path d="M 5 0 C 5 0.113281 4.988281 0.1875 4.96875 0.21875 C 4.875 0.363281 4.523438 0.4375 3.921875 0.4375 C 3.316406 0.4375 2.71875 0.390625 2.125 0.296875 C 1.539062 0.210938 1.25 0.113281 1.25 0 L 1.25 -20.78125 C 1.25 -21.070312 1.566406 -21.21875 2.203125 -21.21875 C 2.847656 -21.21875 3.382812 -21.175781 3.8125 -21.09375 C 4.238281 -21.007812 4.457031 -20.90625 4.46875 -20.78125 L 5 -11.90625 Z M 13.265625 0.140625 C 13.265625 0.335938 12.921875 0.4375 12.234375 0.4375 C 11.554688 0.4375 10.894531 0.390625 10.25 0.296875 C 9.601562 0.210938 9.253906 0.113281 9.203125 0 L 9.171875 -0.03125 L 5.578125 -7.515625 L 5.578125 -8.390625 L 8.515625 -13.671875 C 8.523438 -13.671875 8.53125 -13.679688 8.53125 -13.703125 C 8.695312 -13.992188 9.066406 -14.140625 9.640625 -14.140625 C 10.953125 -14.140625 11.789062 -14.03125 12.15625 -13.8125 C 12.226562 -13.769531 12.253906 -13.734375 12.234375 -13.703125 L 9.109375 -8.390625 L 13.234375 0 C 13.253906 0.0507812 13.265625 0.0976562 13.265625 0.140625 Z M 13.265625 0.140625 "/></g></g></g><g fill="#14b8a6" fill-opacity="1"><g transform="translate(86.705361, 27.384868)"><g><path d="M 6.265625 0.4375 C 4.296875 0.4375 2.925781 -0.09375 2.15625 -1.15625 C 1.394531 -2.226562 1.015625 -4.144531 1.015625 -6.90625 C 1.015625 -8.894531 1.191406 -10.410156 1.546875 -11.453125 C 1.898438 -12.492188 2.429688 -13.203125 3.140625 -13.578125 C 3.847656 -13.953125 4.890625 -14.140625 6.265625 -14.140625 C 7.648438 -14.140625 8.695312 -13.945312 9.40625 -13.5625 C 10.113281 -13.175781 10.632812 -12.457031 10.96875 -11.40625 C 11.300781 -10.351562 11.46875 -8.863281 11.46875 -6.9375 C 11.46875 -6.820312 11.46875 -6.707031 11.46875 -6.59375 C 11.46875 -6.488281 11.25 -6.390625 10.8125 -6.296875 C 10.382812 -6.203125 9.863281 -6.15625 9.25 -6.15625 L 5 -6.15625 C 5.039062 -4 5.195312 -2.773438 5.46875 -2.484375 C 5.632812 -2.335938 5.898438 -2.265625 6.265625 -2.265625 C 8.679688 -2.265625 10.332031 -2.382812 11.21875 -2.625 C 11.25 -2.644531 11.273438 -2.65625 11.296875 -2.65625 C 11.421875 -2.6875 11.523438 -2.609375 11.609375 -2.421875 C 11.691406 -2.242188 11.734375 -1.8125 11.734375 -1.125 C 11.734375 -0.445312 11.585938 -0.0703125 11.296875 0 C 10.546875 0.289062 8.867188 0.4375 6.265625 0.4375 Z M 5 -10.53125 L 5 -8.375 L 7.796875 -8.375 C 7.722656 -10.507812 7.507812 -11.578125 7.15625 -11.578125 C 6.53125 -11.578125 6.015625 -11.484375 5.609375 -11.296875 C 5.203125 -11.109375 5 -10.851562 5 -10.53125 Z M 5 -10.53125 "/></g></g></g><g fill="#14b8a6" fill-opacity="1"><g transform="translate(99.027333, 27.384868)"><g><path d="M 4.46875 -12.59375 C 5.976562 -13.625 6.976562 -14.140625 7.46875 -14.140625 C 7.957031 -14.140625 8.398438 -14.046875 8.796875 -13.859375 C 9.191406 -13.679688 9.484375 -13.5 9.671875 -13.3125 L 9.921875 -13.0625 C 9.640625 -11.882812 9.425781 -11.148438 9.28125 -10.859375 C 9.132812 -10.566406 8.9375 -10.421875 8.6875 -10.421875 C 8.4375 -10.421875 8.117188 -10.519531 7.734375 -10.71875 C 7.347656 -10.914062 7 -11.015625 6.6875 -11.015625 C 6.375 -11.015625 5.75 -10.734375 4.8125 -10.171875 L 4.8125 0 C 4.8125 0.113281 4.789062 0.1875 4.75 0.21875 C 4.675781 0.363281 4.332031 0.4375 3.71875 0.4375 C 3.113281 0.4375 2.550781 0.390625 2.03125 0.296875 C 1.507812 0.210938 1.25 0.113281 1.25 0 L 1.25 -13.703125 C 1.25 -13.992188 1.660156 -14.140625 2.484375 -14.140625 C 3.316406 -14.140625 3.796875 -13.992188 3.921875 -13.703125 L 3.921875 -13.640625 Z M 4.46875 -12.59375 "/></g></g></g></svg>