<svg xmlns="http://www.w3.org/2000/svg" xmlns:xlink="http://www.w3.org/1999/xlink" width="200" zoomAndPan="magnify" viewBox="0 0 150 56.249996" height="75" preserveAspectRatio="xMidYMid meet" version="1.0"><defs><g/></defs><g fill="#f1f5f9" fill-opacity="1"><g transform="translate(2.802823, 40.337165)"><g><path d="M 1.6875 0 L 1.6875 -28.203125 L 14.625 -28.203125 C 15.945312 -28.171875 16.609375 -27.804688 16.609375 -27.109375 C 16.609375 -25.835938 16.46875 -24.953125 16.1875 -24.453125 C 15.914062 -23.953125 15.332031 -23.703125 14.4375 -23.703125 L 6.484375 -23.703125 L 6.859375 -17.0625 L 14.703125 -17.0625 C 15.722656 -17.0625 16.234375 -16.660156 16.234375 -15.859375 C 16.234375 -14.554688 16.117188 -13.675781 15.890625 -13.21875 C 15.671875 -12.757812 15.195312 -12.53125 14.46875 -12.53125 L 6.9375 -12.53125 L 6.9375 0 C 6.9375 0.144531 6.925781 0.242188 6.90625 0.296875 C 6.78125 0.492188 6.296875 0.59375 5.453125 0.59375 C 4.617188 0.59375 3.78125 0.53125 2.9375 0.40625 C 2.101562 0.28125 1.6875 0.144531 1.6875 0 Z M 1.6875 0 "/></g></g></g><g fill="#f1f5f9" fill-opacity="1"><g transform="translate(18.961966, 40.337165)"><g><path d="M 11.171875 -28.84375 C 12.898438 -28.84375 13.835938 -28.453125 13.984375 -27.671875 L 16.53125 -16.15625 L 19.125 -0.828125 C 19.175781 -0.578125 19.203125 -0.34375 19.203125 -0.125 C 19.203125 0.0820312 19.140625 0.253906 19.015625 0.390625 C 18.890625 0.523438 18.460938 0.59375 17.734375 0.59375 C 15.515625 0.59375 14.328125 0.117188 14.171875 -0.828125 L 12.859375 -8.546875 L 7.609375 -8.546875 L 6.453125 -0.78125 C 6.378906 -0.257812 6.285156 0.0859375 6.171875 0.265625 C 6.054688 0.441406 5.898438 0.539062 5.703125 0.5625 C 5.503906 0.582031 5.175781 0.59375 4.71875 0.59375 L 3.671875 0.59375 C 2.796875 0.59375 2.25 0.546875 2.03125 0.453125 C 1.476562 0.253906 1.164062 0.03125 1.09375 -0.21875 C 1.0625 -0.34375 1.046875 -0.457031 1.046875 -0.5625 C 1.046875 -0.664062 1.304688 -2.316406 1.828125 -5.515625 C 2.359375 -8.710938 3.003906 -12.523438 3.765625 -16.953125 C 4.523438 -21.378906 5.023438 -24.28125 5.265625 -25.65625 C 5.503906 -27.03125 5.632812 -27.800781 5.65625 -27.96875 C 5.757812 -28.550781 7.597656 -28.84375 11.171875 -28.84375 Z M 10.046875 -23.921875 L 8.328125 -13.09375 L 12.03125 -13.09375 Z M 10.046875 -23.921875 "/></g></g></g><g fill="#f1f5f9" fill-opacity="1"><g transform="translate(38.87034, 40.337165)"><g><path d="M 1.203125 -13.90625 C 1.203125 -17.882812 1.515625 -20.9375 2.140625 -23.0625 C 2.765625 -25.1875 3.753906 -26.671875 5.109375 -27.515625 C 6.472656 -28.367188 8.441406 -28.796875 11.015625 -28.796875 C 13.597656 -28.796875 15.566406 -28.367188 16.921875 -27.515625 C 18.285156 -26.671875 19.273438 -25.191406 19.890625 -23.078125 C 20.503906 -20.960938 20.8125 -17.90625 20.8125 -13.90625 C 20.8125 -8.4375 20.109375 -4.648438 18.703125 -2.546875 C 17.304688 -0.453125 14.742188 0.59375 11.015625 0.59375 C 7.296875 0.59375 4.726562 -0.453125 3.3125 -2.546875 C 1.90625 -4.648438 1.203125 -8.4375 1.203125 -13.90625 Z M 7.453125 -20.90625 C 7.304688 -19.96875 7.21875 -19.015625 7.1875 -18.046875 C 7.164062 -17.085938 7.15625 -15.457031 7.15625 -13.15625 C 7.15625 -10.863281 7.226562 -8.941406 7.375 -7.390625 C 7.53125 -5.835938 7.734375 -4.816406 7.984375 -4.328125 C 8.234375 -3.835938 8.570312 -3.59375 9 -3.59375 C 11.195312 -3.59375 12.644531 -3.820312 13.34375 -4.28125 C 13.570312 -4.445312 13.804688 -4.726562 14.046875 -5.125 C 14.285156 -5.53125 14.453125 -5.945312 14.546875 -6.375 C 14.648438 -6.800781 14.738281 -7.425781 14.8125 -8.25 C 14.914062 -9.320312 14.96875 -11.25 14.96875 -14.03125 C 14.96875 -16.820312 14.894531 -19.023438 14.75 -20.640625 C 14.613281 -22.253906 14.414062 -23.351562 14.15625 -23.9375 C 13.894531 -24.53125 13.550781 -24.828125 13.125 -24.828125 C 12.125 -24.828125 11.316406 -24.78125 10.703125 -24.6875 C 10.085938 -24.601562 9.539062 -24.390625 9.0625 -24.046875 C 8.59375 -23.710938 8.242188 -23.335938 8.015625 -22.921875 C 7.796875 -22.515625 7.609375 -21.84375 7.453125 -20.90625 Z M 19.28125 4.984375 C 19.25 5.785156 19.050781 6.320312 18.6875 6.59375 C 18.332031 6.875 17.59375 7.015625 16.46875 7.015625 C 15.34375 7.015625 13.457031 6.875 10.8125 6.59375 C 8.175781 6.320312 6.160156 6.1875 4.765625 6.1875 L 4.15625 4.34375 C 4.1875 3.46875 4.425781 2.875 4.875 2.5625 C 5.320312 2.25 6.0625 2.09375 7.09375 2.09375 C 8.132812 2.09375 9.925781 2.21875 12.46875 2.46875 C 15.007812 2.71875 16.96875 2.84375 18.34375 2.84375 Z M 19.28125 4.984375 "/></g></g></g><g fill="#f1f5f9" fill-opacity="1"><g transform="translate(60.653334, 40.337165)"><g><path d="M 15.453125 -0.78125 L 15.453125 -17.8125 L 13.015625 -13.28125 L 9.21875 -13.28125 L 6.9375 -17.734375 L 6.9375 -0.828125 C 6.9375 -0.378906 6.925781 -0.078125 6.90625 0.078125 C 6.800781 0.421875 6.3125 0.59375 5.4375 0.59375 C 2.9375 0.59375 1.6875 0.132812 1.6875 -0.78125 L 1.6875 -27.375 C 1.6875 -28.320312 2.546875 -28.796875 4.265625 -28.796875 C 5.992188 -28.796875 7.035156 -28.332031 7.390625 -27.40625 L 11.171875 -17.734375 L 15.15625 -27.453125 C 15.351562 -28.003906 15.59375 -28.363281 15.875 -28.53125 C 16.164062 -28.707031 16.675781 -28.796875 17.40625 -28.796875 C 19.195312 -28.796875 20.109375 -28.3125 20.140625 -27.34375 L 20.734375 -16.15625 L 20.734375 -1.046875 C 20.734375 -0.296875 20.664062 0.160156 20.53125 0.328125 C 20.394531 0.503906 19.941406 0.59375 19.171875 0.59375 C 18.410156 0.59375 17.789062 0.566406 17.3125 0.515625 C 16.84375 0.472656 16.414062 0.34375 16.03125 0.125 C 15.644531 -0.0820312 15.453125 -0.382812 15.453125 -0.78125 Z M 15.453125 -0.78125 "/></g></g></g><g fill="#f1f5f9" fill-opacity="1"><g transform="translate(82.736263, 40.337165)"><g><path d="M 10.28125 -1.15625 C 8.976562 0.0078125 7.816406 0.59375 6.796875 0.59375 C 5.785156 0.59375 4.96875 0.523438 4.34375 0.390625 C 3.71875 0.253906 3.15625 -0.0390625 2.65625 -0.5 C 2.15625 -0.96875 1.804688 -1.640625 1.609375 -2.515625 C 1.410156 -3.390625 1.3125 -4.550781 1.3125 -6 C 1.3125 -8.019531 2.300781 -9.40625 4.28125 -10.15625 L 9.640625 -11.546875 C 9.609375 -13.171875 9.441406 -14.21875 9.140625 -14.6875 C 8.847656 -15.164062 8.203125 -15.40625 7.203125 -15.40625 C 6.203125 -15.40625 5.335938 -15.242188 4.609375 -14.921875 L 3.296875 -14.40625 L 3.265625 -14.40625 C 3.035156 -14.28125 2.832031 -14.378906 2.65625 -14.703125 C 2.207031 -15.648438 1.984375 -16.390625 1.984375 -16.921875 C 1.984375 -17.460938 2.023438 -17.765625 2.109375 -17.828125 C 2.203125 -17.890625 2.25 -17.9375 2.25 -17.96875 C 3.5 -18.789062 5.117188 -19.203125 7.109375 -19.203125 C 9.097656 -19.203125 10.628906 -18.9375 11.703125 -18.40625 C 12.773438 -17.882812 13.554688 -16.929688 14.046875 -15.546875 C 14.535156 -14.160156 14.78125 -12.101562 14.78125 -9.375 L 14.703125 0 C 14.703125 0.144531 14.675781 0.242188 14.625 0.296875 C 14.519531 0.492188 14.046875 0.59375 13.203125 0.59375 C 11.648438 0.59375 10.875 0.394531 10.875 0 Z M 5.46875 -5.921875 C 5.46875 -4.117188 5.992188 -3.171875 7.046875 -3.078125 C 7.773438 -3.078125 8.300781 -3.203125 8.625 -3.453125 C 9.320312 -3.921875 9.671875 -5.695312 9.671875 -8.78125 C 8.367188 -8.601562 7.34375 -8.242188 6.59375 -7.703125 C 5.84375 -7.171875 5.46875 -6.578125 5.46875 -5.921875 Z M 5.46875 -5.921875 "/></g></g></g><g fill="#f1f5f9" fill-opacity="1"><g transform="translate(98.745429, 40.337165)"><g><path d="M 6.78125 0 C 6.78125 0.144531 6.769531 0.242188 6.75 0.296875 C 6.625 0.492188 6.148438 0.59375 5.328125 0.59375 C 4.503906 0.59375 3.691406 0.53125 2.890625 0.40625 C 2.085938 0.28125 1.6875 0.144531 1.6875 0 L 1.6875 -28.203125 C 1.6875 -28.597656 2.125 -28.796875 3 -28.796875 C 3.875 -28.796875 4.597656 -28.738281 5.171875 -28.625 C 5.742188 -28.519531 6.046875 -28.378906 6.078125 -28.203125 L 6.78125 -16.15625 Z M 18 0.1875 C 18 0.457031 17.535156 0.59375 16.609375 0.59375 C 15.679688 0.59375 14.78125 0.53125 13.90625 0.40625 C 13.03125 0.28125 12.554688 0.144531 12.484375 0 L 12.453125 -0.03125 L 7.578125 -10.203125 L 7.578125 -11.40625 L 11.546875 -18.5625 C 11.578125 -18.5625 11.59375 -18.570312 11.59375 -18.59375 C 11.8125 -19 12.3125 -19.203125 13.09375 -19.203125 C 14.863281 -19.203125 16 -19.050781 16.5 -18.75 C 16.601562 -18.695312 16.640625 -18.644531 16.609375 -18.59375 L 12.375 -11.40625 L 17.96875 0 C 17.988281 0.0703125 18 0.132812 18 0.1875 Z M 18 0.1875 "/></g></g></g><g fill="#f1f5f9" fill-opacity="1"><g transform="translate(116.666706, 40.337165)"><g><path d="M 8.515625 0.59375 C 5.835938 0.59375 3.976562 -0.128906 2.9375 -1.578125 C 1.90625 -3.023438 1.390625 -5.625 1.390625 -9.375 C 1.390625 -12.070312 1.625 -14.125 2.09375 -15.53125 C 2.570312 -16.945312 3.289062 -17.910156 4.25 -18.421875 C 5.21875 -18.941406 6.640625 -19.203125 8.515625 -19.203125 C 10.390625 -19.203125 11.804688 -18.9375 12.765625 -18.40625 C 13.734375 -17.882812 14.441406 -16.910156 14.890625 -15.484375 C 15.335938 -14.054688 15.5625 -12.03125 15.5625 -9.40625 C 15.5625 -9.257812 15.5625 -9.109375 15.5625 -8.953125 C 15.5625 -8.804688 15.265625 -8.671875 14.671875 -8.546875 C 14.085938 -8.421875 13.382812 -8.359375 12.5625 -8.359375 L 6.78125 -8.359375 C 6.832031 -5.429688 7.046875 -3.769531 7.421875 -3.375 C 7.648438 -3.175781 8.015625 -3.078125 8.515625 -3.078125 C 11.785156 -3.078125 14.019531 -3.238281 15.21875 -3.5625 C 15.269531 -3.582031 15.3125 -3.59375 15.34375 -3.59375 C 15.507812 -3.644531 15.648438 -3.546875 15.765625 -3.296875 C 15.878906 -3.046875 15.9375 -2.457031 15.9375 -1.53125 C 15.9375 -0.613281 15.738281 -0.101562 15.34375 0 C 14.3125 0.394531 12.035156 0.59375 8.515625 0.59375 Z M 6.78125 -14.28125 L 6.78125 -11.359375 L 10.578125 -11.359375 C 10.472656 -14.265625 10.1875 -15.71875 9.71875 -15.71875 C 8.863281 -15.71875 8.160156 -15.59375 7.609375 -15.34375 C 7.054688 -15.09375 6.78125 -14.738281 6.78125 -14.28125 Z M 6.78125 -14.28125 "/></g></g></g><g fill="#f1f5f9" fill-opacity="1"><g transform="translate(133.388227, 40.337165)"><g><path d="M 6.078125 -17.09375 C 8.128906 -18.5 9.484375 -19.203125 10.140625 -19.203125 C 10.804688 -19.203125 11.40625 -19.078125 11.9375 -18.828125 C 12.476562 -18.578125 12.875 -18.328125 13.125 -18.078125 L 13.46875 -17.734375 C 13.09375 -16.140625 12.800781 -15.140625 12.59375 -14.734375 C 12.394531 -14.335938 12.125 -14.140625 11.78125 -14.140625 C 11.445312 -14.140625 11.019531 -14.273438 10.5 -14.546875 C 9.976562 -14.828125 9.503906 -14.96875 9.078125 -14.96875 C 8.648438 -14.96875 7.800781 -14.578125 6.53125 -13.796875 L 6.53125 0 C 6.53125 0.144531 6.503906 0.242188 6.453125 0.296875 C 6.347656 0.492188 5.882812 0.59375 5.0625 0.59375 C 4.238281 0.59375 3.46875 0.53125 2.75 0.40625 C 2.039062 0.28125 1.6875 0.144531 1.6875 0 L 1.6875 -18.59375 C 1.6875 -19 2.25 -19.203125 3.375 -19.203125 C 4.5 -19.203125 5.148438 -19 5.328125 -18.59375 L 5.328125 -18.53125 Z M 6.078125 -17.09375 "/></g></g></g></svg>